<svg width="25" height="28" viewBox="0 0 25 28" fill="none" xmlns="http://www.w3.org/2000/svg">
<path d="M0 5.25C0 4.28203 0.797991 3.5 1.78571 3.5H23.2143C24.202 3.5 25 4.28203 25 5.25C25 6.21797 24.202 7 23.2143 7H1.78571C0.797991 7 0 6.21797 0 5.25ZM0 14C0 13.032 0.797991 12.25 1.78571 12.25H23.2143C24.202 12.25 25 13.032 25 14C25 14.968 24.202 15.75 23.2143 15.75H1.78571C0.797991 15.75 0 14.968 0 14ZM25 22.75C25 23.718 24.202 24.5 23.2143 24.5H1.78571C0.797991 24.5 0 23.718 0 22.75C0 21.782 0.797991 21 1.78571 21H23.2143C24.202 21 25 21.782 25 22.75Z" fill="#363B3E"/>
</svg>
