<svg width="24" height="25" viewBox="0 0 24 25" fill="none" xmlns="http://www.w3.org/2000/svg">
<g clip-path="url(#clip0_2601_46595)">
<path d="M12 24.5C15.1826 24.5 18.2348 23.2357 20.4853 20.9853C22.7357 18.7348 24 15.6826 24 12.5C24 9.3174 22.7357 6.26516 20.4853 4.01472C18.2348 1.76428 15.1826 0.5 12 0.5C8.8174 0.5 5.76516 1.76428 3.51472 4.01472C1.26428 6.26516 0 9.3174 0 12.5C0 15.6826 1.26428 18.7348 3.51472 20.9853C5.76516 23.2357 8.8174 24.5 12 24.5ZM10.875 16.625V13.625H7.875C7.25156 13.625 6.75 13.1234 6.75 12.5C6.75 11.8766 7.25156 11.375 7.875 11.375H10.875V8.375C10.875 7.75156 11.3766 7.25 12 7.25C12.6234 7.25 13.125 7.75156 13.125 8.375V11.375H16.125C16.7484 11.375 17.25 11.8766 17.25 12.5C17.25 13.1234 16.7484 13.625 16.125 13.625H13.125V16.625C13.125 17.2484 12.6234 17.75 12 17.75C11.3766 17.75 10.875 17.2484 10.875 16.625Z" fill="#646B80"/>
</g>
<defs>
<clipPath id="clip0_2601_46595">
<rect width="24" height="24" fill="white" transform="translate(0 0.5)"/>
</clipPath>
</defs>
</svg>
