<svg width="173" height="147" viewBox="0 0 173 147" fill="none" xmlns="http://www.w3.org/2000/svg">
<path d="M130.232 82.5586C135.396 79.1669 142.18 82.8669 142.18 89.0335V98.9773C142.18 108.767 134.548 119.25 125.375 122.334L100.786 130.504C96.4692 131.969 89.4546 131.969 85.215 130.504L60.6255 122.334C51.3755 119.25 43.8213 108.767 43.8213 98.9773V88.9565C43.8213 82.8669 50.6046 79.1669 55.6921 82.4815L71.5713 92.8106C77.6609 96.8961 85.3692 98.9002 93.0775 98.9002C100.786 98.9002 108.494 96.8961 114.584 92.8106L130.232 82.5586Z" fill="url(#paint0_linear_2629_54941)"/>
<path d="M154.511 11.7959L108.339 -18.4979C100.014 -23.9708 86.2927 -23.9708 77.9677 -18.4979L31.5636 11.7959C16.6865 21.4313 16.6865 43.2459 31.5636 52.9584L43.8969 60.9751L77.9677 83.1751C86.2927 88.648 100.014 88.648 108.339 83.1751L142.178 60.9751L152.739 54.0376V77.6251C152.739 80.7855 155.359 83.4063 158.52 83.4063C161.68 83.4063 164.301 80.7855 164.301 77.6251V39.7001C167.384 29.7563 164.224 18.1938 154.511 11.7959Z" fill="url(#paint1_linear_2629_54941)"/>
<defs>
<linearGradient id="paint0_linear_2629_54941" x1="93.0005" y1="81.2373" x2="93.0005" y2="131.603" gradientUnits="userSpaceOnUse">
<stop stop-color="#EAEFF0"/>
<stop offset="1" stop-color="#F9F9F9"/>
</linearGradient>
<linearGradient id="paint1_linear_2629_54941" x1="92.9221" y1="-22.6025" x2="92.9221" y2="87.2798" gradientUnits="userSpaceOnUse">
<stop stop-color="#EAEFF0"/>
<stop offset="1" stop-color="#F9F9F9"/>
</linearGradient>
</defs>
</svg>
