<svg width="127" height="126" viewBox="0 0 127 126" fill="none" xmlns="http://www.w3.org/2000/svg">
<g clip-path="url(#clip0_2629_55040)">
<rect x="9.5" y="9" width="108" height="108" rx="23" fill="white"/>
<rect x="10" y="9.5" width="107" height="107" rx="22.5" stroke="#A6A6A6" stroke-opacity="0.12"/>
<g filter="url(#filter0_d_2629_55040)">
<path d="M71.1725 64.9375H69.1833H57.1191V72.2483H60.5033H71.1725C73.6266 72.2483 75.6416 70.595 75.6416 68.58C75.6416 66.565 73.6266 64.9375 71.1725 64.9375Z" fill="#FBBB00"/>
<path d="M63.4998 37.167C49.2398 37.167 37.6665 48.7403 37.6665 63.0003C37.6665 77.2603 49.2398 88.8337 63.4998 88.8337C77.7598 88.8337 89.3332 77.2603 89.3332 63.0003C89.3332 48.7403 77.7598 37.167 63.4998 37.167ZM71.1723 76.1237H66.9098V79.792C66.9098 80.8512 66.0315 81.7295 64.9723 81.7295C63.9132 81.7295 63.0348 80.8512 63.0348 79.792V76.1237H60.5032H59.909V79.792C59.909 80.8512 59.0307 81.7295 57.9715 81.7295C56.9123 81.7295 56.034 80.8512 56.034 79.792V76.1237H55.1815H50.7123C49.6532 76.1237 48.7748 75.2453 48.7748 74.1862C48.7748 73.127 49.6532 72.2487 50.7123 72.2487H53.244V63.0003V53.752H50.7123C49.6532 53.752 48.7748 52.8737 48.7748 51.8145C48.7748 50.7553 49.6532 49.877 50.7123 49.877H55.1815H56.034V46.2087C56.034 45.1495 56.9123 44.2712 57.9715 44.2712C59.0307 44.2712 59.909 45.1495 59.909 46.2087V49.877H60.5032H63.0348V46.2087C63.0348 45.1495 63.9132 44.2712 64.9723 44.2712C66.0315 44.2712 66.9098 45.1495 66.9098 46.2087V49.877H69.1832C73.1873 49.877 76.7265 53.3903 76.7265 57.4203C76.7265 59.1512 76.1065 60.727 75.1248 62.0187C77.734 63.2845 79.5165 65.7645 79.5165 68.632C79.5165 72.7395 75.7707 76.1237 71.1723 76.1237Z" fill="#FBBB00"/>
<path d="M72.8516 57.3939C72.8516 55.6889 71.25 53.7256 69.1833 53.7256H60.5033H57.1191V61.0364H69.1833C71.1983 61.0623 72.8516 59.4089 72.8516 57.3939Z" fill="#FBBB00"/>
</g>
</g>
<rect x="5" y="4.5" width="117" height="117" rx="27.5" stroke="#EAEFF0" stroke-opacity="0.62" stroke-width="9"/>
<defs>
<filter id="filter0_d_2629_55040" x="28.5" y="32" width="70" height="70" filterUnits="userSpaceOnUse" color-interpolation-filters="sRGB">
<feFlood flood-opacity="0" result="BackgroundImageFix"/>
<feColorMatrix in="SourceAlpha" type="matrix" values="0 0 0 0 0 0 0 0 0 0 0 0 0 0 0 0 0 0 127 0" result="hardAlpha"/>
<feOffset dy="4"/>
<feGaussianBlur stdDeviation="2"/>
<feComposite in2="hardAlpha" operator="out"/>
<feColorMatrix type="matrix" values="0 0 0 0 0.980392 0 0 0 0 0.733333 0 0 0 0 0.00392157 0 0 0 0.28 0"/>
<feBlend mode="normal" in2="BackgroundImageFix" result="effect1_dropShadow_2629_55040"/>
<feBlend mode="normal" in="SourceGraphic" in2="effect1_dropShadow_2629_55040" result="shape"/>
</filter>
<clipPath id="clip0_2629_55040">
<rect x="9.5" y="9" width="108" height="108" rx="23" fill="white"/>
</clipPath>
</defs>
</svg>
