<svg width="88" height="97" viewBox="0 0 88 97" fill="none" xmlns="http://www.w3.org/2000/svg">
<path opacity="0.5" d="M18.625 -20C10.6273 -20 4.125 -13.4416 4.125 -5.375V82.375C4.125 90.4416 10.6273 97 18.625 97H69.375C77.3727 97 83.875 90.4416 83.875 82.375V-5.375C83.875 -13.4416 77.3727 -20 69.375 -20H18.625ZM44 71.4062C45.9228 71.4062 47.7669 72.1767 49.1265 73.548C50.4862 74.9194 51.25 76.7794 51.25 78.7188C51.25 80.6581 50.4862 82.5181 49.1265 83.8895C47.7669 85.2608 45.9228 86.0312 44 86.0312C42.0772 86.0312 40.2331 85.2608 38.8735 83.8895C37.5138 82.5181 36.75 80.6581 36.75 78.7188C36.75 76.7794 37.5138 74.9194 38.8735 73.548C40.2331 72.1767 42.0772 71.4062 44 71.4062Z" fill="url(#paint0_linear_2629_55018)"/>
<defs>
<linearGradient id="paint0_linear_2629_55018" x1="44" y1="-20" x2="44" y2="97" gradientUnits="userSpaceOnUse">
<stop stop-color="#EAEFF0"/>
<stop offset="1" stop-color="#F9F9F9"/>
</linearGradient>
</defs>
</svg>
