<svg width="168" height="168" viewBox="0 0 168 168" fill="none" xmlns="http://www.w3.org/2000/svg">
<path d="M92.5003 -1.58301C72.3045 -1.58301 55.8857 14.8357 55.8857 35.0316C55.8857 54.842 71.3795 70.8753 91.5753 71.5691C92.192 71.492 92.8087 71.492 93.2712 71.5691C93.4253 71.5691 93.5024 71.5691 93.6566 71.5691C93.7337 71.5691 93.7337 71.5691 93.8107 71.5691C113.544 70.8753 129.038 54.842 129.115 35.0316C129.115 14.8357 112.696 -1.58301 92.5003 -1.58301Z" fill="url(#paint0_linear_2622_54990)"/>
<path d="M131.658 92.0725C110.152 77.735 75.0792 77.735 53.4188 92.0725C43.6292 98.6245 38.2334 107.489 38.2334 116.97C38.2334 126.452 43.6292 135.239 53.3417 141.714C64.1334 148.96 78.3167 152.583 92.5001 152.583C106.683 152.583 120.867 148.96 131.658 141.714C141.371 135.162 146.767 126.375 146.767 116.816C146.69 107.335 141.371 98.5475 131.658 92.0725Z" fill="url(#paint1_linear_2622_54990)"/>
<defs>
<linearGradient id="paint0_linear_2622_54990" x1="92.5003" y1="-1.58301" x2="92.5003" y2="71.5691" gradientUnits="userSpaceOnUse">
<stop stop-color="#EAEFF0"/>
<stop offset="1" stop-color="#F9F9F9"/>
</linearGradient>
<linearGradient id="paint1_linear_2622_54990" x1="92.5001" y1="81.3193" x2="92.5001" y2="152.583" gradientUnits="userSpaceOnUse">
<stop stop-color="#EAEFF0"/>
<stop offset="1" stop-color="#F9F9F9"/>
</linearGradient>
</defs>
</svg>
