<svg width="177" height="176" viewBox="0 0 177 176" fill="none" xmlns="http://www.w3.org/2000/svg">
<g opacity="0.5">
<path d="M155.051 72.9397L119.053 57.4459L111.036 54.0542C109.803 53.4376 108.724 51.8188 108.724 50.4313V26.8438C108.724 19.4438 103.251 10.6563 96.6217 7.26465C94.3092 6.1084 91.5342 6.1084 89.2217 7.26465C82.6696 10.6563 77.1967 19.5209 77.1967 26.9209V50.5084C77.1967 51.8959 76.1175 53.5146 74.8842 54.1313L30.9467 73.0167C26.0904 75.0209 22.1592 81.1105 22.1592 86.3521V96.5272C22.1592 103.079 27.0925 106.317 33.1821 103.696L71.8008 87.0459C74.8071 85.7355 77.2738 87.3542 77.2738 90.6688V99.2251V113.1C77.2738 114.873 76.2717 117.417 75.0383 118.65L57.155 136.61C55.305 138.46 54.4571 142.083 55.305 144.704L58.7738 155.188C60.1613 159.735 65.3258 161.894 69.5654 159.735L87.9113 144.319C90.6863 141.929 95.2342 141.929 98.0092 144.319L116.355 159.735C120.595 161.817 125.759 159.735 127.301 155.188L130.77 144.704C131.618 142.16 130.77 138.46 128.92 136.61L111.036 118.65C109.726 117.417 108.724 114.873 108.724 113.1V90.6688C108.724 87.3542 111.113 85.8126 114.197 87.0459L152.815 103.696C158.905 106.317 163.838 103.079 163.838 96.5272V86.3521C163.838 81.1105 159.907 75.0209 155.051 72.9397Z" fill="url(#paint0_linear_2629_54969)"/>
</g>
<defs>
<linearGradient id="paint0_linear_2629_54969" x1="92.9988" y1="6.39746" x2="92.9988" y2="160.578" gradientUnits="userSpaceOnUse">
<stop stop-color="#EAEFF0"/>
<stop offset="1" stop-color="#F9F9F9"/>
</linearGradient>
</defs>
</svg>
