<svg width="186" height="185" viewBox="0 0 186 185" fill="none" xmlns="http://www.w3.org/2000/svg">
<g opacity="0.5">
<path d="M93 144.532C89.8396 144.532 87.2188 141.911 87.2188 138.75V131.042C87.2188 127.882 89.8396 125.261 93 125.261C96.1604 125.261 98.7812 127.882 98.7812 131.042V138.75C98.7812 141.911 96.1604 144.532 93 144.532Z" fill="url(#paint0_linear_2629_55078)"/>
<path d="M93 175.365C89.8396 175.365 87.2188 172.744 87.2188 169.583V161.875C87.2188 158.715 89.8396 156.094 93 156.094C96.1604 156.094 98.7812 158.715 98.7812 161.875V169.583C98.7812 172.744 96.1604 175.365 93 175.365Z" fill="url(#paint1_linear_2629_55078)"/>
<path d="M15.9162 175.365C15.4537 175.365 14.9912 175.288 14.5287 175.211C11.4454 174.44 9.51828 171.279 10.2891 168.196L17.9974 137.363C18.7683 134.279 21.8516 132.352 25.012 133.123C28.0954 133.894 30.0224 137.054 29.2516 140.138L21.5433 170.971C20.8495 173.592 18.537 175.365 15.9162 175.365Z" fill="url(#paint2_linear_2629_55078)"/>
<path d="M168.176 173.458C165.556 173.458 163.243 171.685 162.549 169.064L154.841 138.231C154.07 135.148 155.92 131.987 159.081 131.216C162.164 130.446 165.324 132.296 166.095 135.456L173.803 166.289C174.574 169.373 172.724 172.533 169.564 173.304C169.101 173.381 168.639 173.458 168.176 173.458Z" fill="url(#paint3_linear_2629_55078)"/>
<path d="M148.038 40.8538C148.038 43.1663 146.111 45.0163 143.875 45.0163H43.1273C40.8148 45.0163 38.9648 43.0893 38.9648 40.8538C38.9648 38.5413 40.8919 36.6913 43.1273 36.6913H48.8315L50.9898 26.5934C52.994 16.7268 57.1565 7.70801 73.8065 7.70801H113.042C129.692 7.70801 133.932 16.7268 135.936 26.5163L138.094 36.6143H143.798C146.111 36.6143 148.038 38.5413 148.038 40.8538Z" fill="url(#paint4_linear_2629_55078)"/>
<path d="M150.427 72.4585C149.579 63.2085 147.113 53.4189 129.152 53.4189H57.773C39.8126 53.4189 37.423 63.2856 36.498 72.4585L33.3376 106.529C32.9521 110.769 34.3396 115.009 37.2688 118.246C40.2751 121.484 44.4376 123.334 48.9084 123.334H59.3917C68.4876 123.334 70.1834 118.169 71.3396 114.7L72.4959 111.309C73.8063 107.454 74.1146 106.529 79.1251 106.529H107.8C112.81 106.529 112.965 107.069 114.429 111.309L115.585 114.7C116.665 118.169 118.438 123.334 127.456 123.334H137.94C142.333 123.334 146.573 121.484 149.579 118.246C152.508 115.086 153.896 110.769 153.51 106.529L150.427 72.4585ZM76.6584 84.1752H59.9313C57.6188 84.1752 55.7688 82.2481 55.7688 80.0127C55.7688 77.7773 57.6959 75.8502 59.9313 75.8502H76.7355C79.048 75.8502 80.898 77.7773 80.898 80.0127C80.898 82.2481 78.9709 84.1752 76.6584 84.1752ZM126.994 84.1752H110.19C107.877 84.1752 106.027 82.2481 106.027 80.0127C106.027 77.7773 107.954 75.8502 110.19 75.8502H126.994C129.306 75.8502 131.156 77.7773 131.156 80.0127C131.156 82.2481 129.306 84.1752 126.994 84.1752Z" fill="url(#paint5_linear_2629_55078)"/>
</g>
<defs>
<linearGradient id="paint0_linear_2629_55078" x1="93" y1="125.261" x2="93" y2="144.532" gradientUnits="userSpaceOnUse">
<stop stop-color="#EAEFF0"/>
<stop offset="1" stop-color="#F9F9F9"/>
</linearGradient>
<linearGradient id="paint1_linear_2629_55078" x1="93" y1="156.094" x2="93" y2="175.365" gradientUnits="userSpaceOnUse">
<stop stop-color="#EAEFF0"/>
<stop offset="1" stop-color="#F9F9F9"/>
</linearGradient>
<linearGradient id="paint2_linear_2629_55078" x1="19.7704" y1="132.953" x2="19.7704" y2="175.365" gradientUnits="userSpaceOnUse">
<stop stop-color="#EAEFF0"/>
<stop offset="1" stop-color="#F9F9F9"/>
</linearGradient>
<linearGradient id="paint3_linear_2629_55078" x1="164.322" y1="131.042" x2="164.322" y2="173.458" gradientUnits="userSpaceOnUse">
<stop stop-color="#EAEFF0"/>
<stop offset="1" stop-color="#F9F9F9"/>
</linearGradient>
<linearGradient id="paint4_linear_2629_55078" x1="93.5013" y1="7.70801" x2="93.5013" y2="45.0163" gradientUnits="userSpaceOnUse">
<stop stop-color="#EAEFF0"/>
<stop offset="1" stop-color="#F9F9F9"/>
</linearGradient>
<linearGradient id="paint5_linear_2629_55078" x1="93.424" y1="53.4189" x2="93.424" y2="123.334" gradientUnits="userSpaceOnUse">
<stop stop-color="#EAEFF0"/>
<stop offset="1" stop-color="#F9F9F9"/>
</linearGradient>
</defs>
</svg>
