<svg width="68" height="44" viewBox="0 0 68 44" fill="none" xmlns="http://www.w3.org/2000/svg">
<g clip-path="url(#clip0_2578_55649)">
<path d="M66.956 11.8701H55.7459C53.1711 11.8701 51.0832 9.78825 51.0832 7.22082V1.25112C51.0832 0.580448 50.2705 0.248604 49.7975 0.720172L47.9864 2.5261C45.9756 4.53114 43.2466 5.65941 40.3985 5.65941H27.6225C24.7779 5.65941 22.0489 4.53114 20.0346 2.5261L18.2235 0.720172C17.7506 0.248604 16.9378 0.580448 16.9378 1.25112V7.22082C16.9378 9.78825 14.8499 11.8701 12.2751 11.8701H1.04394C0.427384 11.8701 -0.0560532 12.4011 0.0070038 13.0159L0.0700608 13.6307C8.75792 13.6761 15.9114 20.1872 16.9378 28.5846V29.8456C16.9378 33.6286 20.0136 36.6921 23.804 36.6921H24.2454V43.5001L31.0731 36.6921H44.2135C48.0074 36.6921 51.0797 33.6251 51.0832 29.8456V28.396C52.1937 20.0894 59.3051 13.6726 67.9299 13.6307L67.993 13.0194C68.056 12.4046 67.5761 11.8701 66.956 11.8701Z" fill="#53B7A8"/>
<path opacity="0.5" d="M17.4004 16.6765H50.3267C50.3267 11.5696 46.1719 7.42676 41.0503 7.42676H26.6768C21.5516 7.42676 17.4004 11.5696 17.4004 16.6765Z" fill="url(#paint0_linear_2578_55649)"/>
<path opacity="0.6" d="M51.0444 28.9722H16.9341V30.0061C16.9341 33.6704 19.9118 36.6395 23.5866 36.6395H44.3919C48.0667 36.6395 51.0444 33.6704 51.0444 30.0061V28.9722Z" fill="url(#paint1_linear_2578_55649)"/>
<path d="M57.4133 24.2777C59.4732 22.6604 62.1005 21.8709 64.7209 21.8849C65.4145 20.9383 66.0171 19.9218 66.504 18.8459C64.0623 18.549 61.526 18.9193 59.326 19.9881C61.5015 18.294 64.276 17.4801 67.04 17.515C67.4814 16.268 67.7862 14.9546 67.9263 13.5923C59.1264 13.6377 51.02 20.2711 51.02 28.8711C56.0821 28.8466 60.6222 26.6215 63.733 23.111C61.5681 22.9433 59.3541 23.3275 57.4133 24.2777Z" fill="#0A8B73"/>
<path d="M0.0595703 13.5889C0.196194 14.9232 0.486957 16.2087 0.914343 17.4348C3.65382 17.4138 6.40031 18.2312 8.55475 19.9079C6.37578 18.8495 3.86751 18.4757 1.44332 18.7586C1.92676 19.8415 2.51879 20.8615 3.20892 21.8081C5.81528 21.8046 8.42163 22.5941 10.471 24.2009C8.54074 23.2543 6.34075 22.87 4.1828 23.0307C7.29712 26.5867 11.8547 28.8432 16.9554 28.8712C16.9554 20.6798 8.85953 13.6343 0.0595703 13.5889Z" fill="#0A8B73"/>
<path d="M38.0654 27.8509H38.1039L38.0829 27.8334L38.1039 27.8124H38.0654L33.739 23.502L29.4126 27.8124H29.374L29.395 27.8334L29.374 27.8509H29.4126L33.739 32.1648L38.0654 27.8509Z" fill="white"/>
<path opacity="0.3" d="M33.7283 23.8164V32.116L29.4019 27.8754C29.4019 27.8754 32.334 27.0021 33.7283 23.8164Z" fill="url(#paint2_linear_2578_55649)"/>
<path d="M26.8972 28.2106C23.8004 28.2106 21.131 26.3069 19.8804 23.5474C20.5775 26.8344 23.359 29.2935 26.694 29.2935C29.4755 29.2935 31.8717 27.5749 32.9962 25.0983C31.5704 26.995 29.367 28.2106 26.8972 28.2106Z" fill="#0A8B73"/>
<path d="M40.6683 28.2106C43.7756 28.2106 46.4555 26.3069 47.7132 23.5474C47.0125 26.8344 44.2205 29.2935 40.875 29.2935C38.083 29.2935 35.6763 27.5749 34.5518 25.0983C35.9811 26.995 38.188 28.2106 40.6683 28.2106Z" fill="#0A8B73"/>
<path d="M48.095 21.0292V13.6763H40.7208C36.6502 13.6763 33.3467 16.9668 33.3467 21.0292C33.3467 25.0882 36.6467 28.3822 40.7208 28.3822C44.795 28.3822 48.095 25.0917 48.095 21.0292Z" fill="white"/>
<path d="M19.4985 21.0292V13.6763H26.8727C30.9434 13.6763 34.2469 16.9668 34.2469 21.0292C34.2469 25.0882 30.9469 28.3822 26.8727 28.3822C22.802 28.3822 19.4985 25.0917 19.4985 21.0292Z" fill="white"/>
<path d="M26.9742 24.7561C24.6796 24.7561 22.8194 22.9013 22.8194 20.6133C22.8194 19.2685 23.464 18.0773 24.4589 17.3193C22.9561 18.0284 21.9121 19.5514 21.9121 21.3189C21.9121 23.7641 23.9019 25.7482 26.3541 25.7482C28.3474 25.7482 30.0325 24.4418 30.5965 22.6393C29.8853 23.9038 28.5296 24.7561 26.9742 24.7561Z" fill="#8BD0C0"/>
<path d="M26.9883 25.0289C29.3719 25.0289 31.3042 23.1021 31.3042 20.7254C31.3042 18.3486 29.3719 16.4219 26.9883 16.4219C24.6047 16.4219 22.6724 18.3486 22.6724 20.7254C22.6724 23.1021 24.6047 25.0289 26.9883 25.0289Z" fill="#006956"/>
<path d="M28.9991 20.4598C30.1096 20.4598 31.0099 19.5621 31.0099 18.4547C31.0099 17.3474 30.1096 16.4497 28.9991 16.4497C27.8886 16.4497 26.9883 17.3474 26.9883 18.4547C26.9883 19.5621 27.8886 20.4598 28.9991 20.4598Z" fill="white"/>
<path d="M41.2603 24.7561C38.9657 24.7561 37.1056 22.9013 37.1056 20.6133C37.1056 19.2685 37.7501 18.0773 38.745 17.3193C37.2422 18.0284 36.1982 19.5514 36.1982 21.3189C36.1982 23.7641 38.188 25.7482 40.6403 25.7482C42.6336 25.7482 44.3186 24.4418 44.8826 22.6393C44.1679 23.9038 42.8157 24.7561 41.2603 24.7561Z" fill="#8BD0C0"/>
<path d="M41.271 25.0289C43.6546 25.0289 45.5869 23.1021 45.5869 20.7254C45.5869 18.3486 43.6546 16.4219 41.271 16.4219C38.8874 16.4219 36.9551 18.3486 36.9551 20.7254C36.9551 23.1021 38.8874 25.0289 41.271 25.0289Z" fill="#006956"/>
<path d="M43.2852 20.4598C44.3958 20.4598 45.2961 19.5621 45.2961 18.4547C45.2961 17.3474 44.3958 16.4497 43.2852 16.4497C42.1747 16.4497 41.2744 17.3474 41.2744 18.4547C41.2744 19.5621 42.1747 20.4598 43.2852 20.4598Z" fill="white"/>
<path opacity="0.5" d="M57.6937 27.4391C57.6937 27.4391 53.5284 28.8957 50.9956 28.8433V20.5507C50.9956 16.8585 53.9908 13.8649 57.6937 13.8579V27.4391Z" fill="url(#paint3_linear_2578_55649)"/>
<path opacity="0.5" d="M10.2505 27.4596C10.2505 27.4596 14.4158 28.9162 16.9485 28.8638V20.5712C16.9485 16.879 13.9533 13.8854 10.2505 13.8784V27.4596Z" fill="url(#paint4_linear_2578_55649)"/>
</g>
<defs>
<linearGradient id="paint0_linear_2578_55649" x1="33.8631" y1="16.6766" x2="33.8631" y2="7.42693" gradientUnits="userSpaceOnUse">
<stop offset="0.1034" stop-color="white" stop-opacity="0"/>
<stop offset="0.9359" stop-color="white" stop-opacity="0.9285"/>
<stop offset="1" stop-color="white"/>
</linearGradient>
<linearGradient id="paint1_linear_2578_55649" x1="33.9897" y1="28.9712" x2="33.9897" y2="36.6385" gradientUnits="userSpaceOnUse">
<stop offset="0.3101" stop-color="#0A8871" stop-opacity="0"/>
<stop offset="0.9749" stop-color="#0A8871"/>
</linearGradient>
<linearGradient id="paint2_linear_2578_55649" x1="31.5647" y1="28.3293" x2="31.5647" y2="24.2693" gradientUnits="userSpaceOnUse">
<stop stop-color="#0A8871"/>
<stop offset="0.9732" stop-color="#0A8871" stop-opacity="0"/>
</linearGradient>
<linearGradient id="paint3_linear_2578_55649" x1="61.7799" y1="21.3519" x2="50.0623" y2="21.3519" gradientUnits="userSpaceOnUse">
<stop offset="0.3101" stop-color="#0A8871" stop-opacity="0"/>
<stop offset="0.9749" stop-color="#0A8871"/>
</linearGradient>
<linearGradient id="paint4_linear_2578_55649" x1="6.16649" y1="21.3713" x2="17.884" y2="21.3713" gradientUnits="userSpaceOnUse">
<stop offset="0.3101" stop-color="#0A8871" stop-opacity="0"/>
<stop offset="0.9749" stop-color="#0A8871"/>
</linearGradient>
<clipPath id="clip0_2578_55649">
<rect width="68" height="43" fill="white" transform="translate(0 0.5)"/>
</clipPath>
</defs>
</svg>
