<svg width="24" height="24" viewBox="0 0 24 24" fill="none" xmlns="http://www.w3.org/2000/svg">
<g clip-path="url(#clip0_2601_46590)">
<path d="M12 24C15.1826 24 18.2348 22.7357 20.4853 20.4853C22.7357 18.2348 24 15.1826 24 12C24 8.8174 22.7357 5.76516 20.4853 3.51472C18.2348 1.26428 15.1826 0 12 0C8.8174 0 5.76516 1.26428 3.51472 3.51472C1.26428 5.76516 0 8.8174 0 12C0 15.1826 1.26428 18.2348 3.51472 20.4853C5.76516 22.7357 8.8174 24 12 24ZM8.625 10.875H15.375C15.9984 10.875 16.5 11.3766 16.5 12C16.5 12.6234 15.9984 13.125 15.375 13.125H8.625C8.00156 13.125 7.5 12.6234 7.5 12C7.5 11.3766 8.00156 10.875 8.625 10.875Z" fill="#353A49"/>
</g>
<defs>
<clipPath id="clip0_2601_46590">
<rect width="24" height="24" fill="white"/>
</clipPath>
</defs>
</svg>
