<svg width="185" height="184" viewBox="0 0 185 184" fill="none" xmlns="http://www.w3.org/2000/svg">
<g opacity="0.5">
<path d="M115.894 97.2812H109.958H73.9604V119.096H84.0584H115.894C123.217 119.096 129.229 114.162 129.229 108.15C129.229 102.137 123.217 97.2812 115.894 97.2812Z" fill="url(#paint0_linear_2629_55053)"/>
<path d="M92.9998 14.417C50.4498 14.417 15.9165 48.9503 15.9165 91.5003C15.9165 134.05 50.4498 168.584 92.9998 168.584C135.55 168.584 170.083 134.05 170.083 91.5003C170.083 48.9503 135.55 14.417 92.9998 14.417ZM115.894 130.659H103.175V141.605C103.175 144.765 100.554 147.386 97.3936 147.386C94.2332 147.386 91.6123 144.765 91.6123 141.605V130.659H84.0582H82.2853V141.605C82.2853 144.765 79.6644 147.386 76.504 147.386C73.3436 147.386 70.7228 144.765 70.7228 141.605V130.659H68.179H54.8436C51.6832 130.659 49.0623 128.038 49.0623 124.877C49.0623 121.717 51.6832 119.096 54.8436 119.096H62.3978V91.5003V63.9045H54.8436C51.6832 63.9045 49.0623 61.2837 49.0623 58.1232C49.0623 54.9628 51.6832 52.342 54.8436 52.342H68.179H70.7228V41.3962C70.7228 38.2357 73.3436 35.6149 76.504 35.6149C79.6644 35.6149 82.2853 38.2357 82.2853 41.3962V52.342H84.0582H91.6123V41.3962C91.6123 38.2357 94.2332 35.6149 97.3936 35.6149C100.554 35.6149 103.175 38.2357 103.175 41.3962V52.342H109.958C121.906 52.342 132.467 62.8253 132.467 74.8503C132.467 80.0149 130.617 84.717 127.687 88.5712C135.473 92.3483 140.792 99.7483 140.792 108.305C140.792 120.561 129.614 130.659 115.894 130.659Z" fill="url(#paint1_linear_2629_55053)"/>
<path d="M120.904 74.773C120.904 69.6855 116.125 63.8271 109.958 63.8271H84.0584H73.9604V85.6417H109.958C115.971 85.7188 120.904 80.7855 120.904 74.773Z" fill="url(#paint2_linear_2629_55053)"/>
</g>
<defs>
<linearGradient id="paint0_linear_2629_55053" x1="101.595" y1="97.2812" x2="101.595" y2="119.096" gradientUnits="userSpaceOnUse">
<stop stop-color="#EAEFF0"/>
<stop offset="1" stop-color="#F9F9F9"/>
</linearGradient>
<linearGradient id="paint1_linear_2629_55053" x1="92.9998" y1="14.417" x2="92.9998" y2="168.584" gradientUnits="userSpaceOnUse">
<stop stop-color="#EAEFF0"/>
<stop offset="1" stop-color="#F9F9F9"/>
</linearGradient>
<linearGradient id="paint2_linear_2629_55053" x1="97.4323" y1="63.8271" x2="97.4323" y2="85.6426" gradientUnits="userSpaceOnUse">
<stop stop-color="#EAEFF0"/>
<stop offset="1" stop-color="#F9F9F9"/>
</linearGradient>
</defs>
</svg>
