<svg width="177" height="192" viewBox="0 0 177 192" fill="none" xmlns="http://www.w3.org/2000/svg">
<g opacity="0.5">
<path d="M128.673 29.542H126.052V6.41699C126.052 3.25658 123.432 0.635742 120.271 0.635742C117.111 0.635742 114.49 3.25658 114.49 6.41699V29.542H87.5107V6.41699C87.5107 3.25658 84.8899 0.635742 81.7295 0.635742C78.5691 0.635742 75.9482 3.25658 75.9482 6.41699V29.542H73.3274C65.2337 29.542 58.6045 36.1712 58.6045 44.2649V83.5003C58.6045 100.459 70.167 114.334 89.4378 114.334H95.2191V160.584C95.2191 163.744 97.8399 166.365 101 166.365C104.161 166.365 106.782 163.744 106.782 160.584V114.334H112.563C131.834 114.334 143.396 100.459 143.396 83.5003V44.2649C143.396 36.1712 136.767 29.542 128.673 29.542Z" fill="url(#paint0_linear_2622_55022)"/>
</g>
<defs>
<linearGradient id="paint0_linear_2622_55022" x1="101" y1="0.635742" x2="101" y2="166.365" gradientUnits="userSpaceOnUse">
<stop stop-color="#EAEFF0"/>
<stop offset="1" stop-color="#F9F9F9"/>
</linearGradient>
</defs>
</svg>
