<svg width="181" height="170" viewBox="0 0 181 170" fill="none" xmlns="http://www.w3.org/2000/svg">
<g opacity="0.5">
<path d="M80.8033 2.48959C83.7322 5.80905 83.7322 11.1909 80.8033 14.5104L48.6066 51H132.393L100.197 14.5104C97.2678 11.1909 97.2678 5.80905 100.197 2.48959C103.126 -0.829864 107.874 -0.829864 110.803 2.48959L153.607 51H173C177.142 51 180.5 54.8056 180.5 59.5C180.5 64.1944 177.142 68 173 68H8C3.85787 68 0.5 64.1944 0.5 59.5C0.5 54.8056 3.85786 51 8 51H27.3934L70.1967 2.48959C73.1256 -0.829864 77.8744 -0.829864 80.8033 2.48959Z" fill="url(#paint0_linear_2629_54947)"/>
<path fill-rule="evenodd" clip-rule="evenodd" d="M16.7225 86.2578C16.1056 81.1137 19.6147 76.5 24.1953 76.5H156.805C161.385 76.5 164.894 81.1137 164.277 86.2578C163.397 93.6015 162.674 100.315 162.014 106.451C156.111 161.309 155.176 170 90.5 170C25.8239 170 24.8887 161.309 18.9859 106.451C18.3256 100.315 17.6032 93.6015 16.7225 86.2578ZM68 102C68 97.3056 71.3579 93.5 75.5 93.5C79.6421 93.5 83 97.3056 83 102V136C83 140.694 79.6421 144.5 75.5 144.5C71.3579 144.5 68 140.694 68 136V102ZM105.5 93.5C101.358 93.5 98 97.3056 98 102V136C98 140.694 101.358 144.5 105.5 144.5C109.642 144.5 113 140.694 113 136V102C113 97.3056 109.642 93.5 105.5 93.5Z" fill="url(#paint1_linear_2629_54947)"/>
</g>
<defs>
<linearGradient id="paint0_linear_2629_54947" x1="90.5" y1="0" x2="90.5" y2="170" gradientUnits="userSpaceOnUse">
<stop stop-color="#EAEFF0"/>
<stop offset="1" stop-color="#F9F9F9"/>
</linearGradient>
<linearGradient id="paint1_linear_2629_54947" x1="90.5" y1="0" x2="90.5" y2="170" gradientUnits="userSpaceOnUse">
<stop stop-color="#EAEFF0"/>
<stop offset="1" stop-color="#F9F9F9"/>
</linearGradient>
</defs>
</svg>
