<svg width="127" height="126" viewBox="0 0 127 126" fill="none" xmlns="http://www.w3.org/2000/svg">
<g clip-path="url(#clip0_2629_55063)">
<rect x="9.5" y="9" width="108" height="108" rx="23" fill="white"/>
<rect x="10" y="9.5" width="107" height="107" rx="22.5" stroke="#A6A6A6" stroke-opacity="0.12"/>
<g filter="url(#filter0_d_2629_55063)">
<path d="M63.5 80.4378C62.4408 80.4378 61.5625 79.5595 61.5625 78.5003V75.917C61.5625 74.8578 62.4408 73.9795 63.5 73.9795C64.5592 73.9795 65.4375 74.8578 65.4375 75.917V78.5003C65.4375 79.5595 64.5592 80.4378 63.5 80.4378Z" fill="#1385BE"/>
<path d="M63.5 90.7708C62.4408 90.7708 61.5625 89.8925 61.5625 88.8333V86.25C61.5625 85.1908 62.4408 84.3125 63.5 84.3125C64.5592 84.3125 65.4375 85.1908 65.4375 86.25V88.8333C65.4375 89.8925 64.5592 90.7708 63.5 90.7708Z" fill="#1385BE"/>
<path d="M37.6664 90.7712C37.5114 90.7712 37.3564 90.7454 37.2014 90.7196C36.1681 90.4612 35.5223 89.4021 35.7806 88.3687L38.3639 78.0354C38.6223 77.0021 39.6556 76.3562 40.7148 76.6146C41.7481 76.8729 42.3939 77.9321 42.1356 78.9654L39.5523 89.2987C39.3198 90.1771 38.5448 90.7712 37.6664 90.7712Z" fill="#1385BE"/>
<path d="M88.6941 90.1321C87.8158 90.1321 87.0408 89.538 86.8083 88.6596L84.225 78.3263C83.9666 77.293 84.5866 76.2338 85.6458 75.9755C86.6791 75.7171 87.7383 76.3371 87.9966 77.3963L90.58 87.7296C90.8383 88.763 90.2183 89.8221 89.1591 90.0805C89.0041 90.1063 88.8491 90.1321 88.6941 90.1321Z" fill="#1385BE"/>
<path d="M81.9453 45.6913C81.9453 46.4663 81.2994 47.0863 80.5503 47.0863H46.7861C46.0111 47.0863 45.3911 46.4405 45.3911 45.6913C45.3911 44.9163 46.0369 44.2963 46.7861 44.2963H48.6978L49.4211 40.9122C50.0928 37.6055 51.4878 34.583 57.0678 34.583H70.2169C75.7969 34.583 77.2178 37.6055 77.8894 40.8863L78.6128 44.2705H80.5244C81.2994 44.2705 81.9453 44.9163 81.9453 45.6913Z" fill="#1385BE"/>
<path d="M82.7459 56.2832C82.4617 53.1832 81.6351 49.9023 75.6159 49.9023H51.6942C45.675 49.9023 44.8742 53.209 44.5642 56.2832L43.505 67.7015C43.3759 69.1223 43.8409 70.5432 44.8225 71.6282C45.83 72.7132 47.225 73.3332 48.7234 73.3332H52.2367C55.285 73.3332 55.8534 71.6023 56.2409 70.4398L56.6284 69.3032C57.0675 68.0115 57.1709 67.7015 58.85 67.7015H68.46C70.1392 67.7015 70.1909 67.8823 70.6817 69.3032L71.0692 70.4398C71.4309 71.6023 72.025 73.3332 75.0475 73.3332H78.5609C80.0334 73.3332 81.4542 72.7132 82.4617 71.6282C83.4434 70.569 83.9084 69.1223 83.7792 67.7015L82.7459 56.2832ZM58.0234 60.2098H52.4175C51.6425 60.2098 51.0225 59.564 51.0225 58.8148C51.0225 58.0657 51.6684 57.4198 52.4175 57.4198H58.0492C58.8242 57.4198 59.4442 58.0657 59.4442 58.8148C59.4442 59.564 58.7984 60.2098 58.0234 60.2098ZM74.8925 60.2098H69.2609C68.4859 60.2098 67.8659 59.564 67.8659 58.8148C67.8659 58.0657 68.5117 57.4198 69.2609 57.4198H74.8925C75.6675 57.4198 76.2876 58.0657 76.2876 58.8148C76.2876 59.564 75.6675 60.2098 74.8925 60.2098Z" fill="#1385BE"/>
</g>
</g>
<rect x="5" y="4.5" width="117" height="117" rx="27.5" stroke="#EAEFF0" stroke-opacity="0.62" stroke-width="9"/>
<defs>
<filter id="filter0_d_2629_55063" x="24.5" y="28" width="78" height="78" filterUnits="userSpaceOnUse" color-interpolation-filters="sRGB">
<feFlood flood-opacity="0" result="BackgroundImageFix"/>
<feColorMatrix in="SourceAlpha" type="matrix" values="0 0 0 0 0 0 0 0 0 0 0 0 0 0 0 0 0 0 127 0" result="hardAlpha"/>
<feOffset dy="4"/>
<feGaussianBlur stdDeviation="4"/>
<feComposite in2="hardAlpha" operator="out"/>
<feColorMatrix type="matrix" values="0 0 0 0 0.0745098 0 0 0 0 0.521569 0 0 0 0 0.745098 0 0 0 0.17 0"/>
<feBlend mode="normal" in2="BackgroundImageFix" result="effect1_dropShadow_2629_55063"/>
<feBlend mode="normal" in="SourceGraphic" in2="effect1_dropShadow_2629_55063" result="shape"/>
</filter>
<clipPath id="clip0_2629_55063">
<rect x="9.5" y="9" width="108" height="108" rx="23" fill="white"/>
</clipPath>
</defs>
</svg>
