<svg width="76" height="75" viewBox="0 0 76 75" fill="none" xmlns="http://www.w3.org/2000/svg">
<rect x="0.5" width="75" height="75" rx="18" fill="#0A8871"/>
<path d="M62.7188 37C62.7188 50.3789 51.8789 61.2188 38.5 61.2188C25.1211 61.2188 14.2812 50.3789 14.2812 37C14.2812 23.6211 25.1211 12.7812 38.5 12.7812C51.8789 12.7812 62.7188 23.6211 62.7188 37ZM48.8809 33.5527C49.3594 30.3301 46.9082 28.6016 43.5488 27.4395L44.6328 23.0742L41.9766 22.4102L40.9121 26.6582C40.209 26.4824 39.4961 26.3164 38.7832 26.1602L39.8477 21.8828L37.1914 21.2188L36.0977 25.584C35.5215 25.457 34.9551 25.3203 34.3984 25.1836V25.1738L30.7363 24.2559L30.0332 27.0977C30.0332 27.0977 32.0059 27.5469 31.9668 27.5762C33.041 27.8496 33.2363 28.5527 33.207 29.1191L31.9668 34.0898C32.0449 34.1094 32.1328 34.1387 32.2402 34.1777C32.1523 34.1582 32.0547 34.1289 31.957 34.1094L30.2188 41.0723C30.0918 41.3945 29.75 41.8926 28.998 41.707C29.0273 41.7461 27.0645 41.2285 27.0645 41.2285L25.7461 44.2656L29.2031 45.125C29.8477 45.291 30.4727 45.457 31.0977 45.6133L29.9941 50.0273L32.6504 50.6914L33.7441 46.3262C34.4485 46.5161 35.155 46.6984 35.8633 46.873L34.7793 51.2188L37.4355 51.8828L38.5391 47.4785C43.0703 48.3379 46.4785 47.9863 47.9141 43.8945C49.0664 40.5938 47.8555 38.6895 45.4727 37.4492C47.2109 37.0488 48.5195 35.9062 48.8613 33.5527H48.8809ZM42.8066 42.0684C41.9863 45.3691 36.4297 43.582 34.623 43.1328L36.0781 37.2832C37.875 37.7324 43.6562 38.6211 42.7969 42.0684H42.8066ZM43.627 33.5039C42.875 36.502 38.2559 34.9785 36.752 34.6074L38.0703 29.3047C39.5742 29.6758 44.3984 30.3789 43.6172 33.5039H43.627Z" fill="white"/>
</svg>
