<svg width="75" height="75" viewBox="0 0 75 75" fill="none" xmlns="http://www.w3.org/2000/svg">
<rect width="75" height="75" rx="18" fill="#0A8871"/>
<g clip-path="url(#clip0_2774_66422)">
<path d="M31.9504 22.6331C31.4391 21.398 30.091 20.7406 28.8027 21.0925L22.959 22.6863C21.8035 23.005 21 24.0542 21 25.2495C21 41.6784 34.3211 54.9995 50.75 54.9995C51.9453 54.9995 52.9945 54.196 53.3133 53.0406L54.907 47.1968C55.259 45.9085 54.6016 44.5605 53.3664 44.0492L46.9914 41.3929C45.909 40.9413 44.6539 41.2535 43.9168 42.1632L41.234 45.437C36.559 43.2257 32.7738 39.4406 30.5625 34.7656L33.8363 32.0894C34.7461 31.3456 35.0582 30.0972 34.6066 29.0148L31.9504 22.6398V22.6331Z" fill="white"/>
</g>
<defs>
<clipPath id="clip0_2774_66422">
<rect width="34" height="34" fill="white" transform="translate(21 21)"/>
</clipPath>
</defs>
</svg>
