<svg width="75" height="75" viewBox="0 0 75 75" fill="none" xmlns="http://www.w3.org/2000/svg">
<rect width="75" height="75" rx="18" fill="#0A8871"/>
<g clip-path="url(#clip0_2774_66390)">
<path d="M29.6258 44.75C37.7047 44.75 44.2508 39.2094 44.2508 32.375C44.2508 25.5406 37.7047 20 29.6258 20C21.5469 20 15.0008 25.5406 15.0008 32.375C15.0008 35.0891 16.0344 37.5992 17.7851 39.6453C17.5391 40.3062 17.1734 40.8898 16.7867 41.382C16.4492 41.818 16.1047 42.1555 15.8516 42.3875C15.725 42.5 15.6195 42.5914 15.5492 42.6477C15.5141 42.6758 15.4859 42.6969 15.4719 42.7039L15.4578 42.718C15.0711 43.0063 14.9023 43.5125 15.057 43.9695C15.2117 44.4266 15.6406 44.75 16.1258 44.75C17.6586 44.75 19.2055 44.3563 20.4922 43.8711C21.1391 43.625 21.7437 43.3508 22.2711 43.0695C24.4297 44.1383 26.9398 44.75 29.6258 44.75ZM46.5008 32.375C46.5008 40.2711 39.5328 46.2195 31.2781 46.9297C32.9867 52.1609 38.6539 56 45.3758 56C48.0617 56 50.5719 55.3883 52.7375 54.3195C53.2648 54.6008 53.8625 54.875 54.5094 55.1211C55.7961 55.6063 57.343 56 58.8758 56C59.3609 56 59.7969 55.6836 59.9445 55.2195C60.0922 54.7555 59.9305 54.2492 59.5367 53.9609L59.5226 53.9469C59.5086 53.9328 59.4805 53.9188 59.4453 53.8906C59.375 53.8344 59.2695 53.75 59.143 53.6305C58.8898 53.3984 58.5453 53.0609 58.2078 52.625C57.8211 52.1328 57.4555 51.5422 57.2094 50.8883C58.9601 48.8492 59.9937 46.3391 59.9937 43.618C59.9937 37.093 54.0242 31.7422 46.4516 31.2781C46.4797 31.6367 46.4937 32.0023 46.4937 32.368L46.5008 32.375Z" fill="white"/>
</g>
<defs>
<clipPath id="clip0_2774_66390">
<rect width="45" height="36" fill="white" transform="translate(15 20)"/>
</clipPath>
</defs>
</svg>
