<svg width="76" height="75" viewBox="0 0 76 75" fill="none" xmlns="http://www.w3.org/2000/svg">
<rect x="0.5" width="75" height="75" rx="18" fill="#0A8871"/>
<path d="M25.4168 12C21.9236 12 19.0835 14.8588 19.0835 18.375V56.625C19.0835 60.1412 21.9236 63 25.4168 63H47.5835C51.0767 63 53.9168 60.1412 53.9168 56.625V18.375C53.9168 14.8588 51.0767 12 47.5835 12H25.4168ZM36.5002 51.8438C37.34 51.8438 38.1455 52.1796 38.7393 52.7773C39.3332 53.3751 39.6668 54.1859 39.6668 55.0312C39.6668 55.8766 39.3332 56.6874 38.7393 57.2852C38.1455 57.8829 37.34 58.2188 36.5002 58.2188C35.6603 58.2188 34.8549 57.8829 34.261 57.2852C33.6671 56.6874 33.3335 55.8766 33.3335 55.0312C33.3335 54.1859 33.6671 53.3751 34.261 52.7773C34.8549 52.1796 35.6603 51.8438 36.5002 51.8438Z" fill="white"/>
</svg>
