<svg width="76" height="75" viewBox="0 0 76 75" fill="none" xmlns="http://www.w3.org/2000/svg">
<rect x="0.5" width="75" height="75" rx="18" fill="#0A8871"/>
<g clip-path="url(#clip0_2599_58714)">
<path d="M33.7 22.75H14.5V51.25H33.7H37.3H38.5H57.7H62.5V46.5V27.5V22.75H57.7H38.5H37.3H33.7ZM57.7 27.5V46.5H38.5V27.5H57.7ZM25.3675 29.875H27.64L27.895 30.5133L31.48 39.3898C31.4875 39.4121 31.495 39.4344 31.5025 39.4566L33.2875 43.8801L33.3925 44.1324H30.1675L29.0875 41.4605H23.9125L22.8325 44.1324H19.6075L19.7125 43.8801L21.4975 39.4492C21.505 39.427 21.5125 39.4047 21.5275 39.3824L25.1125 30.5059L25.3675 29.8676V29.875ZM26.5 35.0629L25.1125 38.4844H27.88L26.5 35.0629ZM49.6 30.1719H46.6V31.6562V31.9531H43.9H42.4V34.9219H43.9H48.1H50.5675L48.865 38.6328L47.3575 37.141L46.3 36.0871L44.1775 38.1875L45.235 39.234L46.165 40.1543L44.425 41.0152L43.0825 41.6758L44.425 44.3328L45.7675 43.6723L48.6325 42.2547L50.9275 43.6129L52.2175 44.3773L53.7625 41.8316L52.48 41.0672L51.355 40.3992L53.8675 34.9219H55V31.9531H53.5H52.9H49.6V31.6562V30.1719Z" fill="white"/>
</g>
<defs>
<clipPath id="clip0_2599_58714">
<rect width="48" height="38" fill="white" transform="translate(14.5 18)"/>
</clipPath>
</defs>
</svg>
