<svg width="129" height="130" viewBox="0 0 129 130" fill="none" xmlns="http://www.w3.org/2000/svg">
<g filter="url(#filter0_d_2629_46577)">
<rect x="12" y="8" width="105" height="106" rx="52.5" fill="#0A8B73"/>
<rect x="13" y="9" width="103" height="104" rx="51.5" stroke="white" stroke-opacity="0.49" stroke-width="2"/>
<path d="M53.4519 70.4375C65.3013 70.4375 74.9026 62.2805 74.9026 52.2188C74.9026 42.157 65.3013 34 53.4519 34C41.6024 34 32.0011 42.157 32.0011 52.2188C32.0011 56.2145 33.5171 59.91 36.085 62.9223C35.7241 63.8953 35.1878 64.7545 34.6206 65.4791C34.1256 66.1209 33.6202 66.6178 33.249 66.9594C33.0634 67.125 32.9087 67.2596 32.8055 67.3424C32.754 67.3838 32.7127 67.4148 32.6921 67.4252L32.6715 67.4459C32.1043 67.8703 31.8567 68.6156 32.0836 69.2885C32.3105 69.9613 32.9396 70.4375 33.6512 70.4375C35.8994 70.4375 38.1682 69.8578 40.0555 69.1436C41.0042 68.7812 41.8912 68.3775 42.6646 67.9635C45.8307 69.5369 49.5123 70.4375 53.4519 70.4375ZM78.2027 52.2188C78.2027 63.8436 67.9827 72.601 55.8754 73.6465C58.3814 81.348 66.6936 87 76.5526 87C80.4921 87 84.1738 86.0994 87.3502 84.526C88.1237 84.94 89.0002 85.3438 89.949 85.7061C91.8363 86.4203 94.1051 87 96.3533 87C97.0649 87 97.7043 86.5342 97.9209 85.851C98.1374 85.1678 97.9002 84.4225 97.3227 83.998L97.3021 83.9773C97.2815 83.9566 97.2402 83.9359 97.1886 83.8945C97.0855 83.8117 96.9308 83.6875 96.7452 83.5115C96.3739 83.1699 95.8686 82.673 95.3736 82.0312C94.8064 81.3066 94.2701 80.4371 93.9092 79.4744C96.4771 76.4725 97.993 72.777 97.993 68.7709C97.993 59.1646 89.2374 51.2871 78.1305 50.6039C78.1718 51.1318 78.1924 51.6701 78.1924 52.2084L78.2027 52.2188Z" fill="white"/>
</g>
<defs>
<filter id="filter0_d_2629_46577" x="0" y="0" width="129" height="130" filterUnits="userSpaceOnUse" color-interpolation-filters="sRGB">
<feFlood flood-opacity="0" result="BackgroundImageFix"/>
<feColorMatrix in="SourceAlpha" type="matrix" values="0 0 0 0 0 0 0 0 0 0 0 0 0 0 0 0 0 0 127 0" result="hardAlpha"/>
<feOffset dy="4"/>
<feGaussianBlur stdDeviation="6"/>
<feComposite in2="hardAlpha" operator="out"/>
<feColorMatrix type="matrix" values="0 0 0 0 0.0392157 0 0 0 0 0.545098 0 0 0 0 0.45098 0 0 0 0.18 0"/>
<feBlend mode="normal" in2="BackgroundImageFix" result="effect1_dropShadow_2629_46577"/>
<feBlend mode="normal" in="SourceGraphic" in2="effect1_dropShadow_2629_46577" result="shape"/>
</filter>
</defs>
</svg>
